<svg version="1.2" xmlns="http://www.w3.org/2000/svg" viewBox="0 0 2000 348" width="2000" height="348">
	<title>logo-svg</title>
	<style>
		.s0 { fill: #ffffff;stroke: #000000 } 
	</style>
	<g id="Layer_3">
		<path id="Layer" class="s0" d="m1782.6 323.2c0-67.5 0-146.8 0-214.2h-67.2v-83h215.7v83.7h-66.5c-0.8 68.2-1.5 145.3-2.2 213.5-34.2-0.1-52.9 0.1-79.8 0z"/>
		<path id="Layer" class="s0" d="m1552.1 101c-13.3-0.5-36.1 3-54.3 25-19.2 23.2-17.2 49.8-16.6 55.4 3 29.1 22 46.5 28.8 52.1 23.4 19 49.5 18 56.5 17.7 37-1.9 47.3-20.9 51.2-25.5 17.3 13.3 40.9 29.3 58.2 42.6-6.4 10.9-11.9 17.8-30.7 31.6-46 33.9-109.6 34-156.2 11.1-7.3-3.5-33.4-17.1-55.4-46.5-6.6-8.8-23.4-31.8-28.9-65.4-10.2-63.4 25.4-116.5 29.2-121.1 40.6-49.2 78.4-49.4 107.3-51.8 8-0.6 43.8 0.2 49.2 1.3 55.9 12 84.9 54 89.1 60.8-20.3 18.1-36.9 32.9-57.2 51-2.6-3.1-14.8-36-70.2-38.3z"/>
		<path id="Layer" class="s0" d="m1370.4 323.2q-77 0-154 0c0-95.7 0-201.3 0-297q75.3 0 150.7 0 0 39.9 0 79.8-38.8 0-77.6 0 0 16.1 0 32.1 38.8 0 77.6 0 0 34.9 0 69.9-38.8 0-77.7 0 0.1 17.1 0 34.3c25.6 0 54.2-0.2 79.7-0.2 1.5 23.7-0.2 57.4 1.3 81.1z"/>
		<path id="Layer" class="s0" d="m1183.7 26.2c0 99.8 0 190.6 0 290.3-48.2-40.4-96.4-74.2-144.6-114.7q0 60.7 0 121.4-37.7 0-75.4 0c0-99 0-193.3 0-292.3 49.8 38.7 99.5 72.7 149.3 111.3q0-58-0.1-116c23.6-0.7 47.2 0.8 70.8 0z"/>
		<path id="Layer" class="s0" d="m931.1 26.2c0 99.8 0 190.6 0 290.3-48.2-40.4-96.4-74.2-144.6-114.7q0 60.7 0 121.4-37.7 0-75.4 0c0-99 0-193.3 0-292.3 49.7 38.7 99.5 72.7 149.2 111.3q0-58 0-116c23.6-0.7 47.2 0.8 70.8 0z"/>
		<path id="Layer" class="s0" d="m521.6 241.2c8.7 1.6 41.3 7.5 65.4-15.5 18.4-17.6 23.7-44.1 17.7-66.5-0.5-2.2-9-32-38.7-45.4-30.7-13.9-60.1 0.7-67.6 4.4-17.6 8.7-17.9 16.5-53.2 54.8-62 67.4-26.6 33.9-97.1 107.7-6.1 6.3-26.4 24.5-35.3 28.4-51.3 22.4-121.6 18.6-171.2-24.7-9.3-8.2-37.4-33.4-47.6-76.4-16.1-68 26.5-120.9 31-126.4 25.6-30.8 58.3-42.5 73.1-47.6 15.3-5.3 46-13.4 83.9-5.2 54.3 11.9 81 47.3 88.2 58.5-21.1 18.8-32.5 38.2-55 63.4-4.9-8.1-20-24.4-37.3-34.7-5.5-3.3-40-23.2-69.8-10-37 16.5-55.3 79.3-26.6 117.5 20 26.5 58 34.9 85.3 25.5 15.3-5.3 24.2-15.1 34.4-26.6 47.4-53.7 72.7-89.4 96.4-116.4 32-36.4 48.1-54.7 75.3-66.5 47.1-20.3 118.2-19.2 166.2 26.6 40.7 38.8 44 89.9 44.4 104.2 0.2 10.4 0.5 64.8-41 108.6-42.7 44.9-110 58.2-165.1 37.6-42-15.6-63-43.1-71.9-56.4 19.5-19.2 36.8-41.8 56.3-61 3.3 5.3 22.5 35.3 59.8 42.1z"/>
	</g>
</svg>